<svg width="55" height="54" viewBox="0 0 55 54" fill="none" xmlns="http://www.w3.org/2000/svg">
<path d="M42.7103 22.2648C42.7103 14.283 36.1057 13.5083 33.6394 14.8131C33.19 15.0476 32.8974 15.333 32.7824 15.6694C32.03 17.8713 33.1482 21.2964 37.297 21.7857C37.297 21.7857 39.9723 25.4758 27.4945 27.6981C15.0168 25.486 17.6921 21.7857 17.6921 21.7857C21.82 21.2964 22.9591 17.8713 22.2067 15.6694C22.1544 15.4859 22.0395 15.3228 21.8722 15.1699C20.033 13.437 12.2788 13.6001 12.2788 22.2648C12.2788 26.3627 15.4035 28.534 19.3328 29.9305C15.3826 31.8571 14.5361 34.5483 15.2885 37.3108C15.7274 38.9316 17.9011 41.1539 22.4784 42.7951C21.4229 43.4882 20.6914 44.3241 20.4614 45.3945C19.9912 47.5556 21.0885 49.0948 22.0081 49.9511C22.2485 50.1754 22.6351 49.9511 22.5515 49.6351C22.5515 49.6147 22.5306 49.6045 22.5306 49.5739C22.0499 47.6677 23.513 45.6799 27.505 44.2834C31.5597 45.7003 33.0123 47.7085 32.4689 49.6351C32.3853 49.9409 32.7824 50.1652 33.0123 49.9409C33.932 49.0744 35.0293 47.5352 34.559 45.3741C34.3291 44.3241 33.5767 43.4882 32.5421 42.7849C37.1193 41.1539 39.293 38.9214 39.7319 37.3006C40.4844 34.5279 39.6274 31.8469 35.6772 29.9203C39.6065 28.5441 42.7103 26.3729 42.7103 22.2648ZM35.3532 35.8531C35.3532 38.2894 31.3612 39.3598 27.4841 40.634C23.6175 39.3598 19.6045 38.2894 19.6045 35.8531C19.6045 33.7226 23.1576 32.8765 27.4841 31.9693C31.8001 32.8765 35.3532 33.7022 35.3532 35.8531Z" fill="#FDDC00"/>
<path d="M46.1067 9.09439C46.1067 9.09439 48.573 10.9395 52.0948 11.2249C52.4919 11.2453 52.6904 11.6938 52.4396 11.9996C51.311 13.3248 48.3431 15.8121 42.8984 13.8549C42.8984 13.8549 44.7168 16.1281 46.8069 17.1781C47.1517 17.3616 47.1517 17.8305 46.8069 18.014C44.999 18.9518 40.6725 20.593 37.7987 16.6582C37.7987 16.6582 34.5904 21.3983 29.2816 17.3106V51.3681C29.2816 52.0613 28.874 52.6525 28.2784 52.9481C28.0171 53.0705 27.7349 53.1316 27.4214 53.1316C26.4391 53.101 25.6762 52.2855 25.6762 51.3069V17.2902H25.4777C20.1584 21.3983 16.9606 16.6378 16.9606 16.6378C14.0972 20.5624 9.77075 18.9314 7.95239 18.0038C7.61797 17.8203 7.61797 17.331 7.95239 17.1679C10.0529 16.1179 11.8608 13.8447 11.8608 13.8447C6.43708 15.7917 3.45873 13.3146 2.34054 11.9996C2.08973 11.704 2.28829 11.2657 2.6854 11.2249C6.20718 10.9395 8.66301 9.09439 8.66301 9.09439C2.54954 9.59389 0.887932 6.06683 0.449018 4.45621C0.354965 4.10962 0.668474 3.79361 1.02379 3.87516C3.39602 4.37466 6.30123 4.33389 9.39454 4.00768C10.8994 3.85478 12.4356 3.64071 13.9823 3.37567C20.9422 2.18299 21.402 12.0098 25.4881 12.0098H25.6867V8.70703C23.9728 7.97307 22.8233 6.19935 23.0427 4.19117C23.2831 2.18299 24.9656 0.572373 27.0243 0.37869C27.6827 0.307335 28.3202 0.388885 28.9054 0.572372C30.6819 1.15342 31.9673 2.79462 31.9673 4.72125C31.9673 6.50517 30.8805 8.03424 29.3025 8.70703V12.0098C33.3886 12.0098 33.838 2.19319 40.8084 3.37567C45.5319 4.18098 50.245 4.60912 53.7668 3.87516C54.1221 3.80381 54.4356 4.11982 54.3416 4.45621C53.8818 6.04645 52.2202 9.59389 46.1067 9.09439Z" fill="#FF1616"/>
<path d="M32.5107 42.7951C31.6329 43.1213 30.6505 43.4068 29.5846 43.6718C28.8113 43.8655 28.1215 44.0796 27.4841 44.2936C26.8361 44.0796 26.1464 43.8655 25.3731 43.6718C24.3071 43.4068 23.3353 43.1213 22.447 42.7951C23.7846 41.9083 25.6239 41.2457 27.4841 40.6239C29.3442 41.2457 31.173 41.9083 32.5107 42.7951ZM28.4141 27.851C28.0902 27.8001 27.7976 27.7491 27.4945 27.6981C27.1914 27.7593 26.8884 27.8103 26.5749 27.851C23.4607 28.3505 21.0989 29.0743 19.3328 29.9306C21.9245 30.848 24.8506 31.4189 27.4945 31.9693C30.1385 31.4189 33.075 30.848 35.6563 29.9306C33.9006 29.0743 31.5284 28.3709 28.4141 27.851Z" fill="#FF1616"/>
<path d="M17.4307 28.7898C17.0963 28.7898 16.7827 28.46 16.6469 27.9652C16.5215 27.4539 16.626 26.8601 16.8977 26.4973C17.159 26.1179 17.577 26.1014 17.8696 26.3983C18.1622 26.6787 18.3189 27.223 18.2458 27.7672C18.1726 28.3445 17.8278 28.7898 17.4307 28.7898ZM38.1538 27.7672C38.2269 27.223 38.0806 26.6622 37.788 26.3653C37.4849 26.0849 37.0878 26.1014 36.8161 26.4643C36.5444 26.7941 36.4503 27.4044 36.5653 27.9157C36.6802 28.427 37.0042 28.7898 37.3386 28.7898C37.7253 28.7898 38.0701 28.3445 38.1538 27.7672Z" fill="#FF1616"/>
</svg>
