<svg width="215" height="98" viewBox="0 0 215 98" fill="none" xmlns="http://www.w3.org/2000/svg">
<path d="M70.1066 18.0944C70.1066 18.0944 72.5729 19.9395 76.0947 20.2249C76.4918 20.2453 76.6904 20.6938 76.4396 20.9996C75.3109 22.3248 72.343 24.8121 66.8984 22.8549C66.8984 22.8549 68.7167 25.1281 70.8068 26.1781C71.1517 26.3616 71.1517 26.8305 70.8068 27.014C68.9989 27.9518 64.6724 29.593 61.7986 25.6582C61.7986 25.6582 58.5903 30.3983 53.2815 26.3106V60.3681C53.2815 61.0613 52.874 61.6525 52.2783 61.9481C52.017 62.0705 51.7349 62.1316 51.4214 62.1316C50.439 62.101 49.6762 61.2855 49.6762 60.3069V26.2902H49.4776C44.1584 30.3983 40.9605 25.6378 40.9605 25.6378C38.0971 29.5624 33.7707 27.9314 31.9523 27.0038C31.6179 26.8203 31.6179 26.331 31.9523 26.1679C34.0529 25.1179 35.8608 22.8447 35.8608 22.8447C30.437 24.7917 27.4587 22.3146 26.3405 20.9996C26.0897 20.704 26.2882 20.2657 26.6853 20.2249C30.2071 19.9395 32.663 18.0944 32.663 18.0944C26.5495 18.5939 24.8879 15.0668 24.449 13.4562C24.3549 13.1096 24.6684 12.7936 25.0237 12.8752C27.396 13.3747 30.3012 13.3339 33.3945 13.0077C34.8993 12.8548 36.4355 12.6407 37.9822 12.3757C44.9421 11.183 45.402 21.0098 49.4881 21.0098H49.6866V17.707C47.9727 16.9731 46.8232 15.1994 47.0427 13.1912C47.283 11.183 48.9655 9.57237 51.0243 9.37869C51.6826 9.30734 52.3201 9.38888 52.9053 9.57237C54.6819 10.1534 55.9673 11.7946 55.9673 13.7213C55.9673 15.5052 54.8804 17.0342 53.3024 17.707V21.0098C57.3885 21.0098 57.8379 11.1932 64.8083 12.3757C69.5319 13.181 74.245 13.6091 77.7668 12.8752C78.1221 12.8038 78.4356 13.1198 78.3415 13.4562C77.8817 15.0464 76.2201 18.5939 70.1066 18.0944Z" fill="#FF1616"/>
<path d="M66.7103 31.2648C66.7103 23.2831 60.1057 22.5083 57.6394 23.8132C57.1901 24.0476 56.8975 24.333 56.7825 24.6694C56.0301 26.8713 57.1483 30.2964 61.2971 30.7857C61.2971 30.7857 63.9724 34.4759 51.4946 36.6981C39.0169 34.486 41.6922 30.7857 41.6922 30.7857C45.8201 30.2964 46.9591 26.8713 46.2067 24.6694C46.1545 24.4859 46.0395 24.3228 45.8723 24.1699C44.033 22.437 36.2789 22.6001 36.2789 31.2648C36.2789 35.3627 39.4035 37.534 43.3329 38.9305C39.3826 40.8572 38.5361 43.5483 39.2886 46.3108C39.7275 47.9316 41.9012 50.1539 46.4784 51.7951C45.4229 52.4883 44.6914 53.3242 44.4615 54.3945C43.9912 56.5556 45.0885 58.0949 46.0082 58.9511C46.2485 59.1754 46.6352 58.9511 46.5516 58.6351C46.5516 58.6147 46.5307 58.6045 46.5307 58.574C46.05 56.6677 47.513 54.6799 51.5051 53.2834C55.5598 54.7003 57.0124 56.7085 56.469 58.6351C56.3854 58.9409 56.7825 59.1652 57.0124 58.9409C57.932 58.0745 59.0293 56.5352 58.5591 54.3741C58.3292 53.3242 57.5767 52.4883 56.5421 51.7849C61.1194 50.1539 63.2931 47.9215 63.732 46.3006C64.4844 43.5279 63.6275 40.847 59.6772 38.9203C63.6066 37.5442 66.7103 35.3729 66.7103 31.2648ZM59.3533 44.8531C59.3533 47.2894 55.3612 48.3598 51.4842 49.634C47.6175 48.3598 43.6046 47.2894 43.6046 44.8531C43.6046 42.7226 47.1577 41.8765 51.4842 40.9693C55.8002 41.8765 59.3533 42.7022 59.3533 44.8531Z" fill="#FDDC00"/>
<path d="M56.5106 51.7951C55.6328 52.1213 54.6505 52.4068 53.5845 52.6718C52.8112 52.8655 52.1215 53.0796 51.484 53.2936C50.8361 53.0796 50.1463 52.8655 49.373 52.6718C48.3071 52.4068 47.3352 52.1213 46.4469 51.7951C47.7846 50.9083 49.6238 50.2457 51.484 49.6239C53.3442 50.2457 55.173 50.9083 56.5106 51.7951ZM52.4141 36.851C52.0901 36.8001 51.7975 36.7491 51.4944 36.6981C51.1914 36.7593 50.8883 36.8103 50.5748 36.851C47.4606 37.3505 45.0988 38.0743 43.3327 38.9306C45.9244 39.848 48.8505 40.4189 51.4944 40.9693C54.1384 40.4189 57.0749 39.848 59.6562 38.9306C57.9005 38.0743 55.5283 37.3709 52.4141 36.851Z" fill="#FF1616"/>
<path d="M41.4308 26.7898C41.0964 26.7898 40.7829 26.586 40.647 26.2801C40.5216 25.9641 40.6261 25.5972 40.8978 25.3729C41.1591 25.1384 41.5771 25.1282 41.8697 25.3117C42.1623 25.485 42.3191 25.8214 42.2459 26.1578C42.1728 26.5146 41.8279 26.7898 41.4308 26.7898ZM62.1539 26.1578C62.227 25.8214 62.0807 25.4748 61.7881 25.2913C61.4851 25.118 61.0879 25.1282 60.8162 25.3525C60.5445 25.5564 60.4505 25.9335 60.5654 26.2496C60.6804 26.5656 61.0043 26.7898 61.3387 26.7898C61.7254 26.7898 62.0703 26.5146 62.1539 26.1578Z" fill="#FF1616"/>
<path d="M106.976 69.4312V1.00001" stroke="url(#paint0_linear_60_387)" stroke-width="1.50718" stroke-linecap="round"/>
<path d="M158.108 48.2762H153.928L140.176 33.5564V48.2762H136.706V19.2443H140.176V33.3117L153.552 19.2443H157.523L144.356 33.3525L158.108 48.2762Z" fill="#FF1616"/>
<path d="M181.057 27.7255C181.057 30.6613 180.022 32.9243 177.963 34.4942C175.926 36.0742 172.989 36.8591 169.143 36.8591H165.674V48.2762H162.204V19.2443H169.896C177.336 19.2443 181.057 22.0781 181.057 27.7255ZM165.674 33.9641H168.767C171.829 33.9641 174.045 33.4952 175.414 32.537C176.772 31.5584 177.462 30.0089 177.462 27.8886C177.462 25.962 176.814 24.5348 175.539 23.6072C174.254 22.6592 172.247 22.1801 169.52 22.1801H165.674V33.9641Z" fill="#FF1616"/>
<path d="M10.1624 93.8716C9.9534 93.943 9.73394 93.9736 9.54584 93.9736C9.11737 93.9736 8.76206 93.7085 8.44855 93.3415L6.24352 90.6198L8.63666 87.5311H9.9952V86.5321H8.09324L5.27164 90.2222H3.42192V86.5321H0.75708V87.5311H2.24103V93.8614H0.767532V94.8604H4.89543V93.8614H3.42192V91.2212H5.33434L7.54982 93.8716C8.09324 94.575 8.63666 95.0133 9.44133 95.0133C9.78619 95.0133 10.1102 94.942 10.2669 94.84L10.1624 93.8716Z" fill="#E35B21" fill-opacity="0.741"/>
<path d="M23.5336 87.5311H24.9966V86.5321H15.748V87.5311H17.0961L16.9707 93.0867C16.9603 93.7391 16.6886 93.9226 16.1765 93.9226C16.0302 93.9226 15.863 93.892 15.6749 93.8105L15.6017 94.8298C15.9153 94.9624 16.1347 95.0133 16.5527 95.0133C17.4515 95.0133 18.1412 94.4934 18.1516 93.26L18.277 87.5311H22.3527V93.8614H20.8792V94.8604H25.0175V93.8614H23.5336V87.5311Z" fill="#E35B21" fill-opacity="0.741"/>
<path d="M40.1629 87.5311H41.6364V86.5321H39.1701L33.7463 92.9746V87.5311H35.2198V86.5321H31.0815V87.5311H32.5654V93.8614H31.0919V94.8604H33.506L38.9611 88.3364V93.8614H37.498V94.8604H41.6364V93.8614H40.1629V87.5311Z" fill="#E35B21" fill-opacity="0.741"/>
<path d="M56.8475 87.5311H58.321V86.5321H54.1931V87.5311H55.6666V90.0897H50.3787V87.5311H51.8522V86.5321H47.7138V87.5311H49.1978V93.8614H47.7243V94.8604H51.8522V93.8614H50.3787V91.0887H55.6666V93.8614H54.1931V94.8604H58.3314V93.8614H56.8475V87.5311Z" fill="#E35B21" fill-opacity="0.741"/>
<path d="M73.4811 87.5311H74.9546V86.5321H72.4883L67.0646 92.9746V87.5311H68.5381V86.5321H64.3997V87.5311H65.8837V93.8614H64.4102V94.8604H66.8242L72.2793 88.3364V93.8614H70.8163V94.8604H74.9546V93.8614H73.4811V87.5311Z" fill="#E35B21" fill-opacity="0.741"/>
<path d="M90.44 93.8716C90.231 93.943 90.0115 93.9736 89.8234 93.9736C89.395 93.9736 89.0397 93.7085 88.7262 93.3415L86.5211 90.6198L88.9143 87.5311H90.2728V86.5321H88.3708L85.5492 90.2222H83.6995V86.5321H81.0347V87.5311H82.5186V93.8614H81.0451V94.8604H85.173V93.8614H83.6995V91.2212H85.6119L87.8274 93.8716C88.3708 94.575 88.9143 95.0133 89.7189 95.0133C90.0638 95.0133 90.3878 94.942 90.5445 94.84L90.44 93.8716Z" fill="#E35B21" fill-opacity="0.741"/>
<path d="M104.916 93.841C104.728 93.9124 104.561 93.9124 104.425 93.9124C103.892 93.9124 103.631 93.6371 103.631 93.0867V89.5188C103.631 87.5514 102.795 86.3791 100.329 86.3791C99.1476 86.3791 98.1026 86.6645 97.0576 87.266V89.3353H98.1548V87.898C98.855 87.5514 99.597 87.4291 100.297 87.4291C101.666 87.4291 102.45 88.1121 102.45 89.5494V90.1508C101.614 90.0489 100.914 89.9877 99.9523 89.9877C97.5278 89.9877 96.3992 90.8848 96.3992 92.5362C96.3992 94.1061 97.5801 95.0133 99.3253 95.0133C100.318 95.0133 101.551 94.6056 102.502 93.6881C102.659 94.6463 103.192 95.0133 104.049 95.0133C104.268 95.0133 104.592 94.9725 104.989 94.84L104.916 93.841ZM99.4611 93.9633C98.3116 93.9633 97.5069 93.4944 97.5069 92.475C97.5069 91.4862 98.3952 90.9358 99.9209 90.9358C101.029 90.9358 101.645 91.0071 102.45 91.1193V92.6891C101.645 93.5046 100.381 93.9633 99.4611 93.9633Z" fill="#E35B21" fill-opacity="0.741"/>
<path d="M9.40535 93.133C9.19634 93.2044 8.97688 93.235 8.78878 93.235C8.36031 93.235 8.005 92.9699 7.69148 92.603L5.48645 89.8812L7.87959 86.7925H9.23814V85.7935H7.33617L4.51457 89.4837H2.66485V85.7935H0V86.7925H1.48396V93.1229H0.0104524V94.1218H4.13835V93.1229H2.66485V90.4827H4.57727L6.79275 93.133C7.33617 93.8364 7.87959 94.2748 8.68427 94.2748C9.02913 94.2748 9.3531 94.2034 9.50985 94.1015L9.40535 93.133Z" fill="#FF1616"/>
<path d="M22.7765 86.7925H24.2396V85.7935H14.991V86.7925H16.3391L16.2137 92.3481C16.2033 93.0005 15.9316 93.184 15.4195 93.184C15.2732 93.184 15.106 93.1534 14.9179 93.0719L14.8447 94.0913C15.1582 94.2238 15.3777 94.2748 15.7957 94.2748C16.6944 94.2748 17.3842 93.7549 17.3946 92.5214L17.52 86.7925H21.5956V93.1229H20.1221V94.1218H24.2605V93.1229H22.7765V86.7925Z" fill="#FF1616"/>
<path d="M39.4059 86.7925H40.8794V85.7935H38.4131L32.9894 92.236V86.7925H34.4629V85.7935H30.3245V86.7925H31.8085V93.1228H30.335V94.1218H32.749L38.2041 87.5978V93.1228H36.7411V94.1218H40.8794V93.1228H39.4059V86.7925Z" fill="#FF1616"/>
<path d="M56.0931 86.7925H57.5666V85.7935H53.4387V86.7925H54.9122V89.3511H49.6243V86.7925H51.0978V85.7935H46.9595V86.7925H48.4434V93.1228H46.9699V94.1218H51.0978V93.1228H49.6243V90.3501H54.9122V93.1228H53.4387V94.1218H57.5771V93.1228H56.0931V86.7925Z" fill="#FF1616"/>
<path d="M72.724 86.7925H74.1975V85.7935H71.7312L66.3075 92.236V86.7925H67.781V85.7935H63.6426V86.7925H65.1266V93.1228H63.6531V94.1218H66.0671L71.5222 87.5978V93.1228H70.0592V94.1218H74.1975V93.1228H72.724V86.7925Z" fill="#FF1616"/>
<path d="M89.6829 93.133C89.4739 93.2044 89.2545 93.235 89.0664 93.235C88.6379 93.235 88.2826 92.9699 87.9691 92.603L85.764 89.8812L88.1572 86.7925H89.5157V85.7935H87.6138L84.7922 89.4837H82.9424V85.7935H80.2776V86.7925H81.7615V93.1229H80.288V94.1218H84.4159V93.1229H82.9424V90.4827H84.8549L87.0703 93.133C87.6138 93.8364 88.1572 94.2748 88.9619 94.2748C89.3067 94.2748 89.6307 94.2034 89.7874 94.1015L89.6829 93.133Z" fill="#FF1616"/>
<path d="M104.162 93.1024C103.974 93.1738 103.806 93.1738 103.671 93.1738C103.138 93.1738 102.876 92.8986 102.876 92.3481V88.7803C102.876 86.8129 102.04 85.6406 99.5741 85.6406C98.3932 85.6406 97.3482 85.926 96.3031 86.5274V88.5968H97.4004V87.1594C98.1006 86.8129 98.8426 86.6905 99.5427 86.6905C100.912 86.6905 101.695 87.3735 101.695 88.8108V89.4123C100.859 89.3103 100.159 89.2492 99.1979 89.2492C96.7734 89.2492 95.6448 90.1462 95.6448 91.7976C95.6448 93.3675 96.8257 94.2747 98.5709 94.2747C99.5636 94.2747 100.797 93.867 101.748 92.9495C101.904 93.9078 102.437 94.2747 103.294 94.2747C103.514 94.2747 103.838 94.234 104.235 94.1014L104.162 93.1024ZM98.7067 93.2248C97.5572 93.2248 96.7525 92.7558 96.7525 91.7365C96.7525 90.7477 97.6408 90.1972 99.1665 90.1972C100.274 90.1972 100.891 90.2686 101.695 90.3807V91.9505C100.891 92.766 99.6263 93.2248 98.7067 93.2248Z" fill="#FF1616"/>
<path d="M125.629 86.3791C124.27 86.3791 123.371 86.9194 122.734 87.5514C122.546 86.7155 122.013 86.3791 121.229 86.3791C121.01 86.3791 120.675 86.4097 120.289 86.5524L120.351 87.5514C120.539 87.4801 120.717 87.4699 120.832 87.4699C121.386 87.4699 121.637 87.7349 121.637 88.2956V98.0001H122.818V93.9429C123.455 94.5444 124.291 95.0133 125.629 95.0133C127.896 95.0133 129.454 93.4536 129.454 90.6911C129.454 87.8878 127.834 86.3791 125.629 86.3791ZM125.524 93.9429C124.166 93.9429 123.403 93.3415 122.818 92.6585V88.7543C123.371 88.0713 124.166 87.4291 125.524 87.4291C127.144 87.4291 128.262 88.479 128.262 90.6911C128.262 92.9032 127.144 93.9429 125.524 93.9429Z" fill="#E35B21" fill-opacity="0.741"/>
<path d="M144.484 93.841C144.296 93.9124 144.129 93.9124 143.993 93.9124C143.46 93.9124 143.198 93.6371 143.198 93.0867V89.5188C143.198 87.5514 142.362 86.3791 139.896 86.3791C138.715 86.3791 137.67 86.6645 136.625 87.266V89.3353H137.722V87.898C138.423 87.5514 139.165 87.4291 139.865 87.4291C141.234 87.4291 142.018 88.1121 142.018 89.5494V90.1508C141.182 90.0489 140.481 89.9877 139.52 89.9877C137.095 89.9877 135.967 90.8848 135.967 92.5362C135.967 94.1061 137.148 95.0133 138.893 95.0133C139.886 95.0133 141.119 94.6056 142.07 93.6881C142.227 94.6463 142.76 95.0133 143.616 95.0133C143.836 95.0133 144.16 94.9725 144.557 94.84L144.484 93.841ZM139.029 93.9633C137.879 93.9633 137.075 93.4944 137.075 92.475C137.075 91.4862 137.963 90.9358 139.489 90.9358C140.596 90.9358 141.213 91.0071 142.018 91.1193V92.6891C141.213 93.5046 139.948 93.9633 139.029 93.9633Z" fill="#E35B21" fill-opacity="0.741"/>
<path d="M157.745 93.1376C156.92 93.6779 155.979 93.943 154.84 93.943C152.802 93.943 151.778 92.7605 151.778 90.7013C151.778 88.4791 152.959 87.4291 154.788 87.4291C155.551 87.4291 156.293 87.582 156.92 87.9796V89.8348H158.006V87.4495C157.129 86.6442 156 86.3791 154.767 86.3791C152.018 86.3791 150.576 88.1019 150.576 90.7013C150.576 93.5454 152.217 95.0133 154.767 95.0133C156.021 95.0133 157.118 94.7075 158.069 94.0755L157.745 93.1376Z" fill="#E35B21" fill-opacity="0.741"/>
<path d="M171.403 93.1376C170.577 93.6779 169.636 93.943 168.497 93.943C166.46 93.943 165.435 92.7605 165.435 90.7013C165.435 88.4791 166.616 87.4291 168.445 87.4291C169.208 87.4291 169.95 87.582 170.577 87.9796V89.8348H171.664V87.4495C170.786 86.6442 169.657 86.3791 168.424 86.3791C165.676 86.3791 164.234 88.1019 164.234 90.7013C164.234 93.5454 165.874 95.0133 168.424 95.0133C169.678 95.0133 170.776 94.7075 171.727 94.0755L171.403 93.1376Z" fill="#E35B21" fill-opacity="0.741"/>
<path d="M184.817 90.5688C185.862 90.3038 186.405 89.6004 186.405 88.632C186.405 87.3272 185.319 86.5321 183.479 86.5321H177.773V87.5311H179.257V93.8614H177.784V94.8604H183.667C185.643 94.8604 186.876 94.0245 186.876 92.6687C186.876 91.5678 186.134 90.7727 184.817 90.5688ZM183.343 87.5515C184.545 87.5515 185.266 88.0306 185.266 88.8359C185.266 89.6514 184.566 90.1509 183.438 90.1509H180.407V87.5515H183.343ZM180.407 93.8614V91.1499H183.626C184.942 91.1499 185.705 91.6392 185.705 92.5056C185.705 93.3619 184.942 93.8614 183.573 93.8614H180.407Z" fill="#E35B21" fill-opacity="0.741"/>
<path d="M200.798 91.0377C200.84 90.7013 200.851 90.4363 200.851 90.3241C200.851 87.7655 199.377 86.3791 197.162 86.3791C194.643 86.3791 193.17 88.0305 193.17 90.7013C193.17 93.525 194.831 95.0133 197.35 95.0133C198.719 95.0133 199.722 94.6463 200.6 94.0551L200.286 93.1376C199.503 93.6371 198.593 93.943 197.36 93.943C195.552 93.943 194.486 92.9032 194.382 91.0377H200.798ZM197.141 87.4495C198.834 87.4495 199.638 88.2854 199.743 90.0489H194.403C194.591 88.316 195.594 87.4495 197.141 87.4495Z" fill="#E35B21" fill-opacity="0.741"/>
<path d="M214.786 86.5321H206.917V88.6218H208.003V87.5311H210.271V93.8614H208.798V94.8604H212.936V93.8614H211.452V87.5311H213.709V88.6218H214.786V86.5321Z" fill="#E35B21" fill-opacity="0.741"/>
<path d="M124.872 85.6406C123.513 85.6406 122.614 86.1808 121.977 86.8129C121.789 85.977 121.256 85.6406 120.472 85.6406C120.252 85.6406 119.918 85.6711 119.531 85.8139L119.594 86.8129C119.782 86.7415 119.96 86.7313 120.075 86.7313C120.629 86.7313 120.88 86.9963 120.88 87.557V97.2615H122.06V93.2044C122.698 93.8058 123.534 94.2747 124.872 94.2747C127.139 94.2747 128.696 92.7151 128.696 89.9525C128.696 87.1492 127.077 85.6406 124.872 85.6406ZM124.767 93.2044C123.409 93.2044 122.646 92.6029 122.06 91.92V88.0157C122.614 87.3327 123.409 86.6905 124.767 86.6905C126.387 86.6905 127.505 87.7405 127.505 89.9525C127.505 92.1646 126.387 93.2044 124.767 93.2044Z" fill="#FF1616"/>
<path d="M143.724 93.1024C143.536 93.1738 143.369 93.1738 143.233 93.1738C142.7 93.1738 142.439 92.8986 142.439 92.3481V88.7803C142.439 86.8129 141.603 85.6406 139.136 85.6406C137.955 85.6406 136.91 85.926 135.865 86.5274V88.5968H136.963V87.1594C137.663 86.8129 138.405 86.6905 139.105 86.6905C140.474 86.6905 141.258 87.3735 141.258 88.8108V89.4123C140.422 89.3103 139.722 89.2492 138.76 89.2492C136.336 89.2492 135.207 90.1462 135.207 91.7976C135.207 93.3675 136.388 94.2747 138.133 94.2747C139.126 94.2747 140.359 93.867 141.31 92.9495C141.467 93.9078 142 94.2747 142.857 94.2747C143.076 94.2747 143.4 94.234 143.797 94.1014L143.724 93.1024ZM138.269 93.2248C137.119 93.2248 136.315 92.7558 136.315 91.7365C136.315 90.7477 137.203 90.1972 138.729 90.1972C139.836 90.1972 140.453 90.2686 141.258 90.3807V91.9505C140.453 92.766 139.189 93.2248 138.269 93.2248Z" fill="#FF1616"/>
<path d="M156.988 92.3991C156.163 92.9393 155.222 93.2044 154.083 93.2044C152.045 93.2044 151.021 92.0219 151.021 89.9627C151.021 87.7405 152.202 86.6905 154.031 86.6905C154.794 86.6905 155.536 86.8434 156.163 87.241V89.0963H157.249V86.7109C156.372 85.9056 155.243 85.6406 154.01 85.6406C151.261 85.6406 149.819 87.3633 149.819 89.9627C149.819 92.8068 151.46 94.2747 154.01 94.2747C155.264 94.2747 156.361 93.9689 157.312 93.3369L156.988 92.3991Z" fill="#FF1616"/>
<path d="M170.645 92.3991C169.82 92.9393 168.879 93.2044 167.74 93.2044C165.702 93.2044 164.678 92.0219 164.678 89.9627C164.678 87.7405 165.859 86.6905 167.688 86.6905C168.451 86.6905 169.193 86.8434 169.82 87.241V89.0963H170.907V86.7109C170.029 85.9056 168.9 85.6406 167.667 85.6406C164.919 85.6406 163.477 87.3633 163.477 89.9627C163.477 92.8068 165.117 94.2747 167.667 94.2747C168.921 94.2747 170.018 93.9689 170.969 93.3369L170.645 92.3991Z" fill="#FF1616"/>
<path d="M184.062 89.8302C185.108 89.5652 185.651 88.8618 185.651 87.8934C185.651 86.5886 184.564 85.7935 182.725 85.7935H177.019V86.7925H178.503V93.1228H177.029V94.1218H182.913C184.888 94.1218 186.121 93.2859 186.121 91.9302C186.121 90.8292 185.379 90.0341 184.062 89.8302ZM182.589 86.8129C183.791 86.8129 184.512 87.292 184.512 88.0973C184.512 88.9128 183.812 89.4123 182.683 89.4123H179.652V86.8129H182.589ZM179.652 93.1228V90.4113H182.871C184.188 90.4113 184.951 90.9006 184.951 91.7671C184.951 92.6233 184.188 93.1228 182.819 93.1228H179.652Z" fill="#FF1616"/>
<path d="M200.044 90.2991C200.086 89.9627 200.096 89.6977 200.096 89.5856C200.096 87.0269 198.623 85.6406 196.407 85.6406C193.889 85.6406 192.415 87.292 192.415 89.9627C192.415 92.7864 194.077 94.2747 196.595 94.2747C197.964 94.2747 198.967 93.9078 199.845 93.3165L199.532 92.3991C198.748 92.8986 197.839 93.2044 196.606 93.2044C194.798 93.2044 193.732 92.1646 193.627 90.2991H200.044ZM196.386 86.7109C198.079 86.7109 198.884 87.5468 198.988 89.3103H193.648C193.836 87.5774 194.84 86.7109 196.386 86.7109Z" fill="#FF1616"/>
<path d="M214.029 85.7935H206.16V87.8832H207.246V86.7925H209.514V93.1228H208.041V94.1218H212.179V93.1228H210.695V86.7925H212.952V87.8832H214.029V85.7935Z" fill="#FF1616"/>
<defs>
<linearGradient id="paint0_linear_60_387" x1="106.976" y1="35.2156" x2="107.976" y2="35.2156" gradientUnits="userSpaceOnUse">
<stop stop-color="#792B00"/>
<stop offset="1" stop-color="#792B00" stop-opacity="0"/>
</linearGradient>
</defs>
</svg>
